<svg xmlns="http://www.w3.org/2000/svg"   viewBox="0 0 134 35">
  <g fill="none" fill-rule="evenodd">
    <path fill="#0093DD" d="M10.218,17.5 L20.3731,27.6567 L26.7825,21.2474 C27.9144,20.1151 29.7507,20.1154 30.8826,21.2474 C32.0146,22.3794 32.0148,24.2153 30.8826,25.3472 L22.4232,33.8066 C21.2963,34.9333 19.4397,34.9231 18.3234,33.8066 L6.1207,21.6024 L6.1205,28.8578 C6.1205,30.4506 4.8142,31.7572 3.221,31.7572 C1.6202,31.7572 0.3223,30.4589 0.3223,28.8581 L0.3223,6.1423 C0.3223,4.5416 1.6202,3.2432 3.221,3.2432 C4.8221,3.2432 6.1205,4.542 6.1205,6.1423 L6.1205,13.3977 L18.3234,1.1932 C19.4397,0.0768 21.2963,0.0665 22.4232,1.1932 L30.8826,9.6526 C32.0148,10.7845 32.0146,12.6205 30.8826,13.7524 C29.7507,14.8843 27.9144,14.8847 26.7825,13.7524 L20.3731,7.3432 L10.218,17.5 Z M20.3775,14.5979 C21.9798,14.5979 23.2794,15.8975 23.2794,17.4997 C23.2794,19.1023 21.9798,20.4019 20.3775,20.4019 C18.775,20.4019 17.4754,19.1023 17.4754,17.4997 C17.4754,15.8975 18.775,14.5979 20.3775,14.5979 Z"/>
    <g fill="#68B92E" transform="translate(42 4)">
      <path d="M1.9258.869C.9441.869.1292 1.6842.1292 2.6657L.1298 24.3335C.1298 25.3186.9412 26.1307 1.9265 26.1307 2.9117 26.1307 3.7231 25.3189 3.7231 24.3335L3.7225 2.6656C3.7225 1.6815 2.9099.869 1.9258.869L1.9258.869zM15.8875 1.3923C15.1936.6984 14.0409.6979 13.3469 1.3919L5.3095 9.43C4.713 10.0267 4.7927 10.9541 5.0579 11.4122L13.0568 25.2326C13.5402 26.0679 14.6692 26.3867 15.5121 25.8906 16.3558 25.3941 16.6633 24.2872 16.1728 23.4396L8.9163 10.904 15.8875 3.9327C16.5843 3.2358 16.5844 2.0892 15.8875 1.3923zM20.792 8.169C19.8105 8.169 18.9953 8.9844 18.9953 9.9653L18.9948 19.4433C18.9947 23.1345 21.9913 26.1315 25.6826 26.1312L31.3159 26.1307C32.2945 26.1306 33.1121 25.3139 33.1121 24.3344L33.1122 9.9653C33.1122 8.9772 32.3034 8.169 31.3156 8.169 30.3341 8.169 29.5191 8.9839 29.5191 9.9653L29.5191 22.5376 25.6827 22.5381C23.9735 22.5383 22.5877 21.1525 22.5878 19.4432L22.5884 9.9653C22.5885 8.9817 21.7757 8.169 20.792 8.169L20.792 8.169zM51.898 2.666C51.898 1.6843 51.083.8692 50.1015.8692L43.2848.8692C39.592.8692 36.597 3.8646 36.597 7.5571L36.597 19.4431C36.597 23.1357 39.5919 26.131 43.2848 26.131L50.1017 26.131C51.0853 26.131 51.898 25.318 51.898 24.3345 51.898 23.3529 51.0828 22.5379 50.1015 22.5379L43.2849 22.538C41.5762 22.538 40.19 21.152 40.19 19.443L40.19 7.5572C40.19 5.8482 41.576 4.4623 43.2849 4.4623L50.1017 4.4626C51.0853 4.4626 51.898 3.6496 51.898 2.666L51.898 2.666zM72.879.869C71.8935.869 71.0823 1.6802 71.0823 2.6657 71.0823 3.6511 71.8936 4.4622 72.879 4.4622 73.8643 4.4622 74.6754 3.6509 74.6754 2.6657 74.6754 1.6804 73.8643.869 72.879.869zM72.879 8.1696C71.8934 8.1696 71.0823 8.9806 71.0823 9.9659L71.0823 24.3342C71.0823 25.3195 71.8937 26.1307 72.879 26.1307 73.864 26.1307 74.6754 25.3192 74.6754 24.3342L74.6754 9.9659C74.6754 8.9822 73.8628 8.1696 72.879 8.1696zM89.88 26.13C90.8615 26.13 91.6767 25.3149 91.6767 24.3337L91.6772 14.8563C91.6773 11.1638 88.6822 8.1682 84.9894 8.1684L79.3561 8.1689C78.3775 8.169 77.5599 8.9858 77.5599 9.9652L77.5598 24.3337C77.5598 25.3219 78.3686 26.13 79.3564 26.13 80.3379 26.13 81.1529 25.3153 81.1529 24.3337L81.1529 11.762 84.9893 11.7615C86.6983 11.7612 88.0843 13.1474 88.0842 14.8564L88.0836 24.3337C88.0835 25.3173 88.8963 26.13 89.88 26.13L89.88 26.13zM54.483 14.856C54.483 11.1761 57.4587 8.1689 61.1327 8.1687L61.5799 8.169C65.2405 8.1721 68.1975 11.1872 68.1975 14.856L68.1975 19.4435C68.1975 23.1126 65.2404 26.1274 61.5799 26.1305L61.1327 26.1309C57.4576 26.134 54.483 23.1235 54.483 19.4435L54.483 14.856 54.483 14.856zM64.6044 14.8561C64.6044 13.1493 63.2217 11.7613 61.5163 11.7613L61.1636 11.7613C59.4583 11.7613 58.076 13.1497 58.076 14.8561L58.076 19.4434C58.076 21.1496 59.4581 22.5383 61.1636 22.5383L61.5163 22.5383C63.2221 22.5383 64.6044 21.1502 64.6044 19.4434L64.6044 14.8561z"/>
    </g>
  </g>
</svg>
