<?xml version="1.0" encoding="UTF-8"?>
<svg xmlns="http://www.w3.org/2000/svg" xmlns:xlink="http://www.w3.org/1999/xlink" width="541.88pt" height="123.54pt" viewBox="0 0 541.88 123.54" version="1.1">
<defs>
<clipPath id="clip1">
  <path d="M 0 0 L 149 0 L 149 123.539063 L 0 123.539063 Z M 0 0 "/>
</clipPath>
<clipPath id="clip2">
  <path d="M 124 0 L 271 0 L 271 123.539063 L 124 123.539063 Z M 124 0 "/>
</clipPath>
<clipPath id="clip3">
  <path d="M 259 0 L 394 0 L 394 123.539063 L 259 123.539063 Z M 259 0 "/>
</clipPath>
<clipPath id="clip4">
  <path d="M 392 49 L 459 49 L 459 123.539063 L 392 123.539063 Z M 392 49 "/>
</clipPath>
<clipPath id="clip5">
  <path d="M 462 0 L 541.878906 0 L 541.878906 123.539063 L 462 123.539063 Z M 462 0 "/>
</clipPath>
</defs>
<g id="surface1">
<path style=" stroke:none;fill-rule:nonzero;fill:rgb(20.399475%,39.199829%,68.598938%);fill-opacity:1;" d="M 68.394531 101.078125 C 68.386719 101.09375 68.382813 101.113281 68.378906 101.125 "/>
<path style=" stroke:none;fill-rule:nonzero;fill:rgb(20.399475%,39.199829%,68.598938%);fill-opacity:1;" d="M 68.378906 101.125 C 68.375 101.128906 68.375 101.128906 68.375 101.132813 L 68.371094 101.140625 C 68.375 101.136719 68.375 101.132813 68.378906 101.125 "/>
<path style=" stroke:none;fill-rule:nonzero;fill:rgb(20.399475%,39.199829%,68.598938%);fill-opacity:1;" d="M 68.367188 101.152344 C 68.367188 101.15625 68.367188 101.15625 68.367188 101.160156 C 68.363281 101.164063 68.363281 101.167969 68.363281 101.171875 C 68.363281 101.164063 68.367188 101.160156 68.367188 101.152344 "/>
<path style=" stroke:none;fill-rule:nonzero;fill:rgb(20.399475%,39.199829%,68.598938%);fill-opacity:1;" d="M 68.359375 101.179688 C 68.355469 101.1875 68.351563 101.195313 68.351563 101.207031 C 68.351563 101.203125 68.355469 101.195313 68.359375 101.179688 "/>
<path style=" stroke:none;fill-rule:nonzero;fill:rgb(20.399475%,39.199829%,68.598938%);fill-opacity:1;" d="M 68.363281 101.171875 C 68.359375 101.175781 68.359375 101.175781 68.359375 101.179688 C 68.359375 101.175781 68.359375 101.175781 68.363281 101.171875 "/>
<path style=" stroke:none;fill-rule:nonzero;fill:rgb(20.399475%,39.199829%,68.598938%);fill-opacity:1;" d="M 68.363281 101.171875 C 68.363281 101.167969 68.363281 101.164063 68.363281 101.160156 C 68.359375 101.179688 68.351563 101.195313 68.351563 101.207031 C 68.351563 101.195313 68.355469 101.1875 68.359375 101.179688 C 68.359375 101.175781 68.359375 101.175781 68.363281 101.171875 "/>
<g clip-path="url(#clip1)" clip-rule="nonzero">
<path style=" stroke:none;fill-rule:nonzero;fill:rgb(20.399475%,39.199829%,68.598938%);fill-opacity:1;" d="M 101.730469 0.234375 C 72.707031 88.023438 68.808594 99.816406 68.394531 101.078125 L 68.378906 101.125 C 68.375 101.132813 68.375 101.136719 68.371094 101.144531 L 68.375 101.132813 C 68.371094 101.140625 68.371094 101.152344 68.367188 101.160156 C 68.367188 101.15625 68.367188 101.15625 68.367188 101.152344 C 68.367188 101.160156 68.363281 101.164063 68.363281 101.171875 C 68.359375 101.175781 68.359375 101.175781 68.359375 101.179688 C 68.355469 101.195313 68.351563 101.203125 68.351563 101.207031 C 68.347656 101.210938 68.347656 101.214844 68.347656 101.210938 C 68.347656 101.210938 68.347656 101.214844 68.347656 101.214844 L 49.171875 101.214844 C 44.550781 101.214844 41.273438 96.679688 42.734375 92.285156 C 42.753906 92.226563 42.769531 92.183594 42.78125 92.148438 C 42.777344 92.160156 42.773438 92.175781 42.765625 92.191406 C 43.152344 91.027344 46.917969 79.707031 73.355469 0.234375 L 32.253906 0.234375 L 1.15625 94.003906 C -3.589844 108.3125 6.855469 123.226563 22.035156 123.527344 L 22.03125 123.539063 C 38.328125 123.539063 102.5625 123.539063 102.144531 123.539063 L 132.910156 30.304688 L 116.339844 34.628906 L 148.988281 0.234375 "/>
</g>
<path style=" stroke:none;fill-rule:nonzero;fill:rgb(20.399475%,39.199829%,68.598938%);fill-opacity:1;" d="M 68.394531 101.078125 C 68.390625 101.082031 68.382813 101.105469 68.375 101.132813 C 68.375 101.128906 68.375 101.128906 68.378906 101.125 C 68.382813 101.113281 68.386719 101.09375 68.394531 101.078125 "/>
<path style=" stroke:none;fill-rule:nonzero;fill:rgb(20.399475%,39.199829%,68.598938%);fill-opacity:1;" d="M 42.808594 92.0625 C 42.8125 92.050781 42.8125 92.050781 42.808594 92.0625 "/>
<path style=" stroke:none;fill-rule:nonzero;fill:rgb(20.399475%,39.199829%,68.598938%);fill-opacity:1;" d="M 42.78125 92.144531 C 42.789063 92.125 42.796875 92.101563 42.800781 92.085938 C 42.796875 92.097656 42.789063 92.121094 42.78125 92.144531 "/>
<path style=" stroke:none;fill-rule:nonzero;fill:rgb(20.399475%,39.199829%,68.598938%);fill-opacity:1;" d="M 42.800781 92.085938 C 42.804688 92.074219 42.808594 92.066406 42.808594 92.0625 C 42.808594 92.070313 42.804688 92.074219 42.800781 92.085938 "/>
<g clip-path="url(#clip2)" clip-rule="nonzero">
<path style=" stroke:none;fill-rule:nonzero;fill:rgb(20.399475%,39.199829%,68.598938%);fill-opacity:1;" d="M 221.972656 22.105469 C 224.15625 22.105469 226.203125 23.15625 227.476563 24.925781 C 228.753906 26.695313 229.101563 28.96875 228.410156 31.039063 L 221.011719 53.234375 C 219.160156 58.796875 213.953125 62.546875 208.089844 62.546875 L 185.199219 62.546875 L 198.679688 22.105469 Z M 246.523438 0.324219 L 158.507813 0.492188 L 169.019531 34.632813 L 154.851563 30.3125 L 124.117188 123.007813 L 164.980469 123.007813 L 178.171875 84.351563 L 219.207031 84.351563 C 239.007813 84.351563 256.5625 71.621094 262.714844 52.800781 L 266.984375 39.738281 C 279.34375 2.398438 253.125 0.324219 246.523438 0.324219 "/>
</g>
<g clip-path="url(#clip3)" clip-rule="nonzero">
<path style=" stroke:none;fill-rule:nonzero;fill:rgb(14.099121%,23.899841%,51.399231%);fill-opacity:1;" d="M 351.296875 70.53125 L 343.96875 92.425781 C 342.132813 97.90625 337.003906 101.601563 331.226563 101.609375 L 308.226563 101.632813 L 321.40625 61.363281 L 345.75 61.3125 C 349.304688 61.3125 353.855469 62.765625 351.296875 70.53125 M 371.070313 39.902344 L 328.609375 39.902344 L 341.742188 0.289063 L 300.105469 0.289063 L 259.480469 123.34375 L 340.917969 123.34375 C 361.234375 123.34375 379.261719 110.324219 385.652344 91.039063 L 391.832031 72.386719 C 394.894531 63.242188 396.445313 39.902344 371.070313 39.902344 "/>
</g>
<path style=" stroke:none;fill-rule:nonzero;fill:rgb(14.099121%,23.899841%,51.399231%);fill-opacity:1;" d="M 433.152344 0.367188 L 474.539063 0.367188 L 464.117188 31.882813 L 422.730469 31.984375 Z M 433.152344 0.367188 "/>
<g clip-path="url(#clip4)" clip-rule="nonzero">
<path style=" stroke:none;fill-rule:nonzero;fill:rgb(14.099121%,23.899841%,51.399231%);fill-opacity:1;" d="M 416.984375 49.144531 L 458.4375 49.144531 L 434.023438 123.316406 L 392.574219 123.316406 Z M 416.984375 49.144531 "/>
</g>
<g clip-path="url(#clip5)" clip-rule="nonzero">
<path style=" stroke:none;fill-rule:nonzero;fill:rgb(14.099121%,23.899841%,51.399231%);fill-opacity:1;" d="M 506.5 89.871094 L 515.851563 61.613281 L 534.644531 61.613281 L 541.875 40.167969 L 523.019531 40.097656 L 536.449219 0 L 494.632813 0.355469 L 464.132813 93.667969 C 459.300781 108.4375 470.40625 123.632813 485.960938 123.5 L 524.515625 123.171875 L 531.699219 101.355469 L 514.796875 101.355469 C 508.851563 101.355469 504.628906 95.527344 506.5 89.871094 "/>
</g>
</g>
</svg>
